%TF.GenerationSoftware,KiCad,Pcbnew,(5.1.7)-1*%
%TF.CreationDate,2020-11-17T20:53:12-06:00*%
%TF.ProjectId,ST72F264 Programming Interface,53543732-4632-4363-9420-50726f677261,rev?*%
%TF.SameCoordinates,Original*%
%TF.FileFunction,Copper,L2,Bot*%
%TF.FilePolarity,Positive*%
%FSLAX46Y46*%
G04 Gerber Fmt 4.6, Leading zero omitted, Abs format (unit mm)*
G04 Created by KiCad (PCBNEW (5.1.7)-1) date 2020-11-17 20:53:12*
%MOMM*%
%LPD*%
G01*
G04 APERTURE LIST*
%TA.AperFunction,EtchedComponent*%
%ADD10C,0.254000*%
%TD*%
%TA.AperFunction,ComponentPad*%
%ADD11C,2.200000*%
%TD*%
%TA.AperFunction,ComponentPad*%
%ADD12R,2.200000X2.200000*%
%TD*%
%TA.AperFunction,ComponentPad*%
%ADD13O,1.200000X2.000000*%
%TD*%
%TA.AperFunction,SMDPad,CuDef*%
%ADD14R,3.800000X2.000000*%
%TD*%
%TA.AperFunction,SMDPad,CuDef*%
%ADD15R,0.635000X1.270000*%
%TD*%
%TA.AperFunction,ViaPad*%
%ADD16C,0.800000*%
%TD*%
%TA.AperFunction,Conductor*%
%ADD17C,0.250000*%
%TD*%
%TA.AperFunction,Conductor*%
%ADD18C,0.254000*%
%TD*%
%TA.AperFunction,Conductor*%
%ADD19C,0.100000*%
%TD*%
G04 APERTURE END LIST*
D10*
%TO.C,JP1*%
X131516000Y-103500000D02*
X130500000Y-103500000D01*
%TD*%
D11*
%TO.P,J1,9*%
%TO.N,OSC*%
X166040000Y-97340000D03*
%TO.P,J1,10*%
%TO.N,GND*%
X163500000Y-97340000D03*
%TO.P,J1,7*%
%TO.N,VDD*%
X166040000Y-99880000D03*
%TO.P,J1,8*%
%TO.N,ICCSEL*%
X163500000Y-99880000D03*
%TO.P,J1,5*%
%TO.N,GND*%
X166040000Y-102420000D03*
%TO.P,J1,6*%
%TO.N,~RESET*%
X163500000Y-102420000D03*
%TO.P,J1,3*%
%TO.N,GND*%
X166040000Y-104960000D03*
%TO.P,J1,4*%
%TO.N,ICCCLK*%
X163500000Y-104960000D03*
D12*
%TO.P,J1,1*%
%TO.N,GND*%
X166040000Y-107500000D03*
D11*
%TO.P,J1,2*%
%TO.N,ICCDATA*%
X163500000Y-107500000D03*
%TD*%
D13*
%TO.P,Y1,3*%
%TO.N,Net-(U1-Pad3)*%
X133660001Y-111340001D03*
%TO.P,Y1,2*%
%TO.N,GND*%
X131160001Y-111340001D03*
%TO.P,Y1,1*%
%TO.N,Net-(JP1-Pad2)*%
X128660001Y-111340001D03*
%TD*%
%TO.P,U1,16*%
%TO.N,N/C*%
X155360001Y-107220001D03*
%TO.P,U1,17*%
X155360001Y-97060001D03*
%TO.P,U1,15*%
X153580001Y-107220001D03*
%TO.P,U1,18*%
X153580001Y-97060001D03*
%TO.P,U1,14*%
X151800001Y-107220001D03*
%TO.P,U1,19*%
X151800001Y-97060001D03*
%TO.P,U1,13*%
X150020001Y-107220001D03*
%TO.P,U1,20*%
X150020001Y-97060001D03*
%TO.P,U1,12*%
X148240001Y-107220001D03*
%TO.P,U1,21*%
X148240001Y-97060001D03*
%TO.P,U1,11*%
X146460001Y-107220001D03*
%TO.P,U1,22*%
X146460001Y-97060001D03*
%TO.P,U1,10*%
X144680001Y-107220001D03*
%TO.P,U1,23*%
X144680001Y-97060001D03*
%TO.P,U1,9*%
X142900001Y-107220001D03*
%TO.P,U1,24*%
X142900001Y-97060001D03*
%TO.P,U1,8*%
X141120001Y-107220001D03*
%TO.P,U1,25*%
X141120001Y-97060001D03*
%TO.P,U1,7*%
X139340001Y-107220001D03*
%TO.P,U1,26*%
X139340001Y-97060001D03*
%TO.P,U1,6*%
X137560001Y-107220001D03*
%TO.P,U1,27*%
X137560001Y-97060001D03*
%TO.P,U1,5*%
X135780001Y-107220001D03*
%TO.P,U1,28*%
%TO.N,ICCDATA*%
X135780001Y-97060001D03*
%TO.P,U1,4*%
%TO.N,N/C*%
X134000001Y-107220001D03*
%TO.P,U1,29*%
%TO.N,ICCCLK*%
X134000001Y-97060001D03*
%TO.P,U1,3*%
%TO.N,Net-(U1-Pad3)*%
X132220001Y-107220001D03*
%TO.P,U1,30*%
%TO.N,ICCSEL*%
X132220001Y-97060001D03*
%TO.P,U1,2*%
%TO.N,Net-(JP1-Pad2)*%
X130440001Y-107220001D03*
%TO.P,U1,31*%
%TO.N,GND*%
X130440001Y-97060001D03*
%TO.P,U1,1*%
%TO.N,~RESET*%
X128660001Y-107220001D03*
%TO.P,U1,32*%
%TO.N,VDD*%
X128660001Y-97060001D03*
%TD*%
D14*
%TO.P,TP2,1*%
%TO.N,GND*%
X135500000Y-101000000D03*
%TD*%
%TO.P,TP1,1*%
%TO.N,VDD*%
X130000000Y-101000000D03*
%TD*%
%TO.P,R1,2*%
%TO.N,GND*%
%TA.AperFunction,SMDPad,CuDef*%
G36*
G01*
X139575000Y-101049999D02*
X139575000Y-101950001D01*
G75*
G02*
X139325001Y-102200000I-249999J0D01*
G01*
X138674999Y-102200000D01*
G75*
G02*
X138425000Y-101950001I0J249999D01*
G01*
X138425000Y-101049999D01*
G75*
G02*
X138674999Y-100800000I249999J0D01*
G01*
X139325001Y-100800000D01*
G75*
G02*
X139575000Y-101049999I0J-249999D01*
G01*
G37*
%TD.AperFunction*%
%TO.P,R1,1*%
%TO.N,ICCSEL*%
%TA.AperFunction,SMDPad,CuDef*%
G36*
G01*
X141625000Y-101049999D02*
X141625000Y-101950001D01*
G75*
G02*
X141375001Y-102200000I-249999J0D01*
G01*
X140724999Y-102200000D01*
G75*
G02*
X140475000Y-101950001I0J249999D01*
G01*
X140475000Y-101049999D01*
G75*
G02*
X140724999Y-100800000I249999J0D01*
G01*
X141375001Y-100800000D01*
G75*
G02*
X141625000Y-101049999I0J-249999D01*
G01*
G37*
%TD.AperFunction*%
%TD*%
D15*
%TO.P,JP1,2*%
%TO.N,Net-(JP1-Pad2)*%
X130500000Y-103500000D03*
%TO.P,JP1,1*%
%TO.N,OSC*%
X131516000Y-103500000D03*
%TD*%
D16*
%TO.N,GND*%
X144500000Y-100000000D03*
X150500000Y-100000000D03*
X161000000Y-101000000D03*
X161000000Y-96000000D03*
X160000000Y-106000000D03*
%TO.N,ICCSEL*%
X143000000Y-101500000D03*
%TO.N,ICCCLK*%
X156000000Y-105000000D03*
%TO.N,ICCDATA*%
X154500000Y-104000000D03*
%TD*%
D17*
%TO.N,Net-(JP1-Pad2)*%
X130440001Y-107220001D02*
X130047990Y-106827990D01*
X130440001Y-107220001D02*
X130440001Y-104079239D01*
X130440001Y-107220001D02*
X130440001Y-108059999D01*
X128660001Y-109839999D02*
X128660001Y-111340001D01*
X130440001Y-108059999D02*
X128660001Y-109839999D01*
%TO.N,GND*%
X136000000Y-101500000D02*
X135500000Y-101000000D01*
X139000000Y-101500000D02*
X136000000Y-101500000D01*
%TO.N,ICCSEL*%
X141050000Y-101500000D02*
X138550000Y-99000000D01*
X138550000Y-99000000D02*
X133000000Y-99000000D01*
X132220001Y-98220001D02*
X132220001Y-97060001D01*
X133000000Y-99000000D02*
X132220001Y-98220001D01*
X141050000Y-101500000D02*
X143000000Y-101500000D01*
%TO.N,VDD*%
X130000000Y-101000000D02*
X130000000Y-100000000D01*
X128660001Y-98660001D02*
X128660001Y-97060001D01*
X130000000Y-100000000D02*
X128660001Y-98660001D01*
%TO.N,Net-(U1-Pad3)*%
X132220001Y-107220001D02*
X132220001Y-108220001D01*
X133660001Y-109660001D02*
X133660001Y-111340001D01*
X132220001Y-108220001D02*
X133660001Y-109660001D01*
%TO.N,OSC*%
X165000000Y-94000000D02*
X166040000Y-95040000D01*
X160128163Y-94000000D02*
X165000000Y-94000000D01*
X150628163Y-103500000D02*
X160128163Y-94000000D01*
X166040000Y-95040000D02*
X166040000Y-97340000D01*
X131516000Y-103500000D02*
X150628163Y-103500000D01*
%TO.N,ICCCLK*%
X163460000Y-105000000D02*
X163500000Y-104960000D01*
X156000000Y-105000000D02*
X163460000Y-105000000D01*
%TO.N,ICCDATA*%
X154500000Y-104573002D02*
X157426998Y-107500000D01*
X157426998Y-107500000D02*
X163500000Y-107500000D01*
X154500000Y-104000000D02*
X154500000Y-104573002D01*
%TD*%
D18*
%TO.N,GND*%
X171840000Y-113840000D02*
X127660000Y-113840000D01*
X127660000Y-112468236D01*
X127782500Y-112617503D01*
X127970553Y-112771834D01*
X128185101Y-112886512D01*
X128417900Y-112957131D01*
X128660001Y-112980976D01*
X128902103Y-112957131D01*
X129134902Y-112886512D01*
X129349450Y-112771834D01*
X129537503Y-112617503D01*
X129691834Y-112429450D01*
X129806512Y-112214902D01*
X129877131Y-111982102D01*
X129895001Y-111800665D01*
X129895001Y-111467001D01*
X129925001Y-111467001D01*
X129925001Y-111867001D01*
X129973508Y-112105497D01*
X130067611Y-112329947D01*
X130203694Y-112531726D01*
X130376527Y-112703079D01*
X130579468Y-112837422D01*
X130804719Y-112929592D01*
X130842392Y-112933463D01*
X131033001Y-112808732D01*
X131033001Y-111467001D01*
X131287001Y-111467001D01*
X131287001Y-112808732D01*
X131477610Y-112933463D01*
X131515283Y-112929592D01*
X131740534Y-112837422D01*
X131943475Y-112703079D01*
X132116308Y-112531726D01*
X132252391Y-112329947D01*
X132346494Y-112105497D01*
X132395001Y-111867001D01*
X132395001Y-111467001D01*
X131287001Y-111467001D01*
X131033001Y-111467001D01*
X129925001Y-111467001D01*
X129895001Y-111467001D01*
X129895001Y-110879336D01*
X129888468Y-110813001D01*
X129925001Y-110813001D01*
X129925001Y-111213001D01*
X131033001Y-111213001D01*
X131033001Y-109871270D01*
X131287001Y-109871270D01*
X131287001Y-111213001D01*
X132395001Y-111213001D01*
X132395001Y-110813001D01*
X132346494Y-110574505D01*
X132252391Y-110350055D01*
X132116308Y-110148276D01*
X131943475Y-109976923D01*
X131740534Y-109842580D01*
X131515283Y-109750410D01*
X131477610Y-109746539D01*
X131287001Y-109871270D01*
X131033001Y-109871270D01*
X130842392Y-109746539D01*
X130804719Y-109750410D01*
X130579468Y-109842580D01*
X130376527Y-109976923D01*
X130203694Y-110148276D01*
X130067611Y-110350055D01*
X129973508Y-110574505D01*
X129925001Y-110813001D01*
X129888468Y-110813001D01*
X129877131Y-110697899D01*
X129806512Y-110465100D01*
X129691834Y-110250552D01*
X129537503Y-110062499D01*
X129523662Y-110051140D01*
X130761867Y-108812935D01*
X130914902Y-108766512D01*
X131129450Y-108651834D01*
X131317503Y-108497503D01*
X131330002Y-108482274D01*
X131342500Y-108497503D01*
X131530553Y-108651834D01*
X131638645Y-108709610D01*
X131656202Y-108731003D01*
X131680001Y-108760002D01*
X131708999Y-108783800D01*
X132895203Y-109970005D01*
X132782499Y-110062499D01*
X132628168Y-110250553D01*
X132513490Y-110465101D01*
X132442871Y-110697900D01*
X132425001Y-110879337D01*
X132425001Y-111800666D01*
X132442871Y-111982103D01*
X132513490Y-112214902D01*
X132628169Y-112429450D01*
X132782500Y-112617503D01*
X132970553Y-112771834D01*
X133185101Y-112886512D01*
X133417900Y-112957131D01*
X133660001Y-112980976D01*
X133902103Y-112957131D01*
X134134902Y-112886512D01*
X134349450Y-112771834D01*
X134537503Y-112617503D01*
X134691834Y-112429450D01*
X134806512Y-112214902D01*
X134877131Y-111982102D01*
X134895001Y-111800665D01*
X134895001Y-110879336D01*
X134877131Y-110697899D01*
X134806512Y-110465100D01*
X134691834Y-110250552D01*
X134537503Y-110062499D01*
X134420001Y-109966068D01*
X134420001Y-109697334D01*
X134423678Y-109660001D01*
X134409004Y-109511015D01*
X134365547Y-109367754D01*
X134294975Y-109235725D01*
X134223800Y-109148998D01*
X134200002Y-109120000D01*
X134171005Y-109096203D01*
X133928761Y-108853959D01*
X134000001Y-108860976D01*
X134242103Y-108837131D01*
X134474902Y-108766512D01*
X134689450Y-108651834D01*
X134877503Y-108497503D01*
X134890002Y-108482274D01*
X134902500Y-108497503D01*
X135090553Y-108651834D01*
X135305101Y-108766512D01*
X135537900Y-108837131D01*
X135780001Y-108860976D01*
X136022103Y-108837131D01*
X136254902Y-108766512D01*
X136469450Y-108651834D01*
X136657503Y-108497503D01*
X136670002Y-108482274D01*
X136682500Y-108497503D01*
X136870553Y-108651834D01*
X137085101Y-108766512D01*
X137317900Y-108837131D01*
X137560001Y-108860976D01*
X137802103Y-108837131D01*
X138034902Y-108766512D01*
X138249450Y-108651834D01*
X138437503Y-108497503D01*
X138450002Y-108482274D01*
X138462500Y-108497503D01*
X138650553Y-108651834D01*
X138865101Y-108766512D01*
X139097900Y-108837131D01*
X139340001Y-108860976D01*
X139582103Y-108837131D01*
X139814902Y-108766512D01*
X140029450Y-108651834D01*
X140217503Y-108497503D01*
X140230002Y-108482274D01*
X140242500Y-108497503D01*
X140430553Y-108651834D01*
X140645101Y-108766512D01*
X140877900Y-108837131D01*
X141120001Y-108860976D01*
X141362103Y-108837131D01*
X141594902Y-108766512D01*
X141809450Y-108651834D01*
X141997503Y-108497503D01*
X142010002Y-108482274D01*
X142022500Y-108497503D01*
X142210553Y-108651834D01*
X142425101Y-108766512D01*
X142657900Y-108837131D01*
X142900001Y-108860976D01*
X143142103Y-108837131D01*
X143374902Y-108766512D01*
X143589450Y-108651834D01*
X143777503Y-108497503D01*
X143790002Y-108482274D01*
X143802500Y-108497503D01*
X143990553Y-108651834D01*
X144205101Y-108766512D01*
X144437900Y-108837131D01*
X144680001Y-108860976D01*
X144922103Y-108837131D01*
X145154902Y-108766512D01*
X145369450Y-108651834D01*
X145557503Y-108497503D01*
X145570002Y-108482274D01*
X145582500Y-108497503D01*
X145770553Y-108651834D01*
X145985101Y-108766512D01*
X146217900Y-108837131D01*
X146460001Y-108860976D01*
X146702103Y-108837131D01*
X146934902Y-108766512D01*
X147149450Y-108651834D01*
X147337503Y-108497503D01*
X147350002Y-108482274D01*
X147362500Y-108497503D01*
X147550553Y-108651834D01*
X147765101Y-108766512D01*
X147997900Y-108837131D01*
X148240001Y-108860976D01*
X148482103Y-108837131D01*
X148714902Y-108766512D01*
X148929450Y-108651834D01*
X149117503Y-108497503D01*
X149130002Y-108482274D01*
X149142500Y-108497503D01*
X149330553Y-108651834D01*
X149545101Y-108766512D01*
X149777900Y-108837131D01*
X150020001Y-108860976D01*
X150262103Y-108837131D01*
X150494902Y-108766512D01*
X150709450Y-108651834D01*
X150897503Y-108497503D01*
X150910002Y-108482274D01*
X150922500Y-108497503D01*
X151110553Y-108651834D01*
X151325101Y-108766512D01*
X151557900Y-108837131D01*
X151800001Y-108860976D01*
X152042103Y-108837131D01*
X152274902Y-108766512D01*
X152489450Y-108651834D01*
X152677503Y-108497503D01*
X152690002Y-108482274D01*
X152702500Y-108497503D01*
X152890553Y-108651834D01*
X153105101Y-108766512D01*
X153337900Y-108837131D01*
X153580001Y-108860976D01*
X153822103Y-108837131D01*
X154054902Y-108766512D01*
X154269450Y-108651834D01*
X154457503Y-108497503D01*
X154470002Y-108482274D01*
X154482500Y-108497503D01*
X154670553Y-108651834D01*
X154885101Y-108766512D01*
X155117900Y-108837131D01*
X155360001Y-108860976D01*
X155602103Y-108837131D01*
X155834902Y-108766512D01*
X156049450Y-108651834D01*
X156237503Y-108497503D01*
X156391834Y-108309450D01*
X156506512Y-108094902D01*
X156577131Y-107862102D01*
X156589429Y-107737233D01*
X156863199Y-108011003D01*
X156886997Y-108040001D01*
X157002722Y-108134974D01*
X157134751Y-108205546D01*
X157278012Y-108249003D01*
X157389665Y-108260000D01*
X157389674Y-108260000D01*
X157426997Y-108263676D01*
X157464320Y-108260000D01*
X161936852Y-108260000D01*
X161962463Y-108321831D01*
X162152337Y-108605998D01*
X162394002Y-108847663D01*
X162678169Y-109037537D01*
X162993919Y-109168325D01*
X163329117Y-109235000D01*
X163670883Y-109235000D01*
X164006081Y-109168325D01*
X164321831Y-109037537D01*
X164422443Y-108970310D01*
X164488815Y-109051185D01*
X164585506Y-109130537D01*
X164695820Y-109189502D01*
X164815518Y-109225812D01*
X164940000Y-109238072D01*
X165754250Y-109235000D01*
X165913000Y-109076250D01*
X165913000Y-107627000D01*
X166167000Y-107627000D01*
X166167000Y-109076250D01*
X166325750Y-109235000D01*
X167140000Y-109238072D01*
X167264482Y-109225812D01*
X167384180Y-109189502D01*
X167494494Y-109130537D01*
X167591185Y-109051185D01*
X167670537Y-108954494D01*
X167729502Y-108844180D01*
X167765812Y-108724482D01*
X167778072Y-108600000D01*
X167775000Y-107785750D01*
X167616250Y-107627000D01*
X166167000Y-107627000D01*
X165913000Y-107627000D01*
X165893000Y-107627000D01*
X165893000Y-107373000D01*
X165913000Y-107373000D01*
X165913000Y-107353000D01*
X166167000Y-107353000D01*
X166167000Y-107373000D01*
X167616250Y-107373000D01*
X167775000Y-107214250D01*
X167778072Y-106400000D01*
X167765812Y-106275518D01*
X167729502Y-106155820D01*
X167670537Y-106045506D01*
X167591185Y-105948815D01*
X167511267Y-105883228D01*
X167521338Y-105879274D01*
X167672216Y-105572616D01*
X167760369Y-105242415D01*
X167782409Y-104901361D01*
X167737489Y-104562561D01*
X167627336Y-104239034D01*
X167521338Y-104040726D01*
X167246712Y-103932893D01*
X166219605Y-104960000D01*
X166233748Y-104974143D01*
X166054143Y-105153748D01*
X166040000Y-105139605D01*
X166025858Y-105153748D01*
X165846253Y-104974143D01*
X165860395Y-104960000D01*
X165035469Y-104135074D01*
X164847663Y-103854002D01*
X164683661Y-103690000D01*
X164746949Y-103626712D01*
X165012893Y-103626712D01*
X165037743Y-103690000D01*
X165012893Y-103753288D01*
X165094725Y-103835120D01*
X165120726Y-103901338D01*
X165199894Y-103940289D01*
X166040000Y-104780395D01*
X166872877Y-103947518D01*
X166959274Y-103901338D01*
X166985275Y-103835120D01*
X167067107Y-103753288D01*
X167042257Y-103690000D01*
X167067107Y-103626712D01*
X166985275Y-103544880D01*
X166959274Y-103478662D01*
X166880106Y-103439711D01*
X166040000Y-102599605D01*
X165207123Y-103432482D01*
X165120726Y-103478662D01*
X165094725Y-103544880D01*
X165012893Y-103626712D01*
X164746949Y-103626712D01*
X164847663Y-103525998D01*
X165035469Y-103244926D01*
X165860395Y-102420000D01*
X166219605Y-102420000D01*
X167246712Y-103447107D01*
X167521338Y-103339274D01*
X167672216Y-103032616D01*
X167760369Y-102702415D01*
X167782409Y-102361361D01*
X167737489Y-102022561D01*
X167627336Y-101699034D01*
X167521338Y-101500726D01*
X167246712Y-101392893D01*
X166219605Y-102420000D01*
X165860395Y-102420000D01*
X165035469Y-101595074D01*
X164847663Y-101314002D01*
X164683661Y-101150000D01*
X164770000Y-101063661D01*
X164934002Y-101227663D01*
X165215074Y-101415469D01*
X166040000Y-102240395D01*
X166864926Y-101415469D01*
X167145998Y-101227663D01*
X167387663Y-100985998D01*
X167577537Y-100701831D01*
X167708325Y-100386081D01*
X167775000Y-100050883D01*
X167775000Y-99709117D01*
X167708325Y-99373919D01*
X167577537Y-99058169D01*
X167387663Y-98774002D01*
X167223661Y-98610000D01*
X167387663Y-98445998D01*
X167577537Y-98161831D01*
X167708325Y-97846081D01*
X167775000Y-97510883D01*
X167775000Y-97169117D01*
X167708325Y-96833919D01*
X167577537Y-96518169D01*
X167387663Y-96234002D01*
X167145998Y-95992337D01*
X166861831Y-95802463D01*
X166800000Y-95776852D01*
X166800000Y-95077322D01*
X166803676Y-95039999D01*
X166800000Y-95002676D01*
X166800000Y-95002667D01*
X166789003Y-94891014D01*
X166745546Y-94747753D01*
X166722986Y-94705546D01*
X166674974Y-94615723D01*
X166603799Y-94528997D01*
X166580001Y-94499999D01*
X166551004Y-94476202D01*
X165563804Y-93489002D01*
X165540001Y-93459999D01*
X165424276Y-93365026D01*
X165292247Y-93294454D01*
X165148986Y-93250997D01*
X165037333Y-93240000D01*
X165037322Y-93240000D01*
X165000000Y-93236324D01*
X164962678Y-93240000D01*
X160165486Y-93240000D01*
X160128163Y-93236324D01*
X160090840Y-93240000D01*
X160090830Y-93240000D01*
X159979177Y-93250997D01*
X159835916Y-93294454D01*
X159703887Y-93365026D01*
X159588162Y-93459999D01*
X159564364Y-93488997D01*
X156582361Y-96471000D01*
X156577131Y-96417899D01*
X156506512Y-96185100D01*
X156391834Y-95970552D01*
X156237503Y-95782499D01*
X156049449Y-95628168D01*
X155834901Y-95513490D01*
X155602102Y-95442871D01*
X155360001Y-95419026D01*
X155117899Y-95442871D01*
X154885100Y-95513490D01*
X154670552Y-95628168D01*
X154482499Y-95782499D01*
X154470001Y-95797728D01*
X154457503Y-95782499D01*
X154269449Y-95628168D01*
X154054901Y-95513490D01*
X153822102Y-95442871D01*
X153580001Y-95419026D01*
X153337899Y-95442871D01*
X153105100Y-95513490D01*
X152890552Y-95628168D01*
X152702499Y-95782499D01*
X152690001Y-95797728D01*
X152677503Y-95782499D01*
X152489449Y-95628168D01*
X152274901Y-95513490D01*
X152042102Y-95442871D01*
X151800001Y-95419026D01*
X151557899Y-95442871D01*
X151325100Y-95513490D01*
X151110552Y-95628168D01*
X150922499Y-95782499D01*
X150910001Y-95797728D01*
X150897503Y-95782499D01*
X150709449Y-95628168D01*
X150494901Y-95513490D01*
X150262102Y-95442871D01*
X150020001Y-95419026D01*
X149777899Y-95442871D01*
X149545100Y-95513490D01*
X149330552Y-95628168D01*
X149142499Y-95782499D01*
X149130001Y-95797728D01*
X149117503Y-95782499D01*
X148929449Y-95628168D01*
X148714901Y-95513490D01*
X148482102Y-95442871D01*
X148240001Y-95419026D01*
X147997899Y-95442871D01*
X147765100Y-95513490D01*
X147550552Y-95628168D01*
X147362499Y-95782499D01*
X147350001Y-95797728D01*
X147337503Y-95782499D01*
X147149449Y-95628168D01*
X146934901Y-95513490D01*
X146702102Y-95442871D01*
X146460001Y-95419026D01*
X146217899Y-95442871D01*
X145985100Y-95513490D01*
X145770552Y-95628168D01*
X145582499Y-95782499D01*
X145570001Y-95797728D01*
X145557503Y-95782499D01*
X145369449Y-95628168D01*
X145154901Y-95513490D01*
X144922102Y-95442871D01*
X144680001Y-95419026D01*
X144437899Y-95442871D01*
X144205100Y-95513490D01*
X143990552Y-95628168D01*
X143802499Y-95782499D01*
X143790001Y-95797728D01*
X143777503Y-95782499D01*
X143589449Y-95628168D01*
X143374901Y-95513490D01*
X143142102Y-95442871D01*
X142900001Y-95419026D01*
X142657899Y-95442871D01*
X142425100Y-95513490D01*
X142210552Y-95628168D01*
X142022499Y-95782499D01*
X142010001Y-95797728D01*
X141997503Y-95782499D01*
X141809449Y-95628168D01*
X141594901Y-95513490D01*
X141362102Y-95442871D01*
X141120001Y-95419026D01*
X140877899Y-95442871D01*
X140645100Y-95513490D01*
X140430552Y-95628168D01*
X140242499Y-95782499D01*
X140230001Y-95797728D01*
X140217503Y-95782499D01*
X140029449Y-95628168D01*
X139814901Y-95513490D01*
X139582102Y-95442871D01*
X139340001Y-95419026D01*
X139097899Y-95442871D01*
X138865100Y-95513490D01*
X138650552Y-95628168D01*
X138462499Y-95782499D01*
X138450001Y-95797728D01*
X138437503Y-95782499D01*
X138249449Y-95628168D01*
X138034901Y-95513490D01*
X137802102Y-95442871D01*
X137560001Y-95419026D01*
X137317899Y-95442871D01*
X137085100Y-95513490D01*
X136870552Y-95628168D01*
X136682499Y-95782499D01*
X136670001Y-95797728D01*
X136657503Y-95782499D01*
X136469449Y-95628168D01*
X136254901Y-95513490D01*
X136022102Y-95442871D01*
X135780001Y-95419026D01*
X135537899Y-95442871D01*
X135305100Y-95513490D01*
X135090552Y-95628168D01*
X134902499Y-95782499D01*
X134890001Y-95797728D01*
X134877503Y-95782499D01*
X134689449Y-95628168D01*
X134474901Y-95513490D01*
X134242102Y-95442871D01*
X134000001Y-95419026D01*
X133757899Y-95442871D01*
X133525100Y-95513490D01*
X133310552Y-95628168D01*
X133122499Y-95782499D01*
X133110001Y-95797728D01*
X133097503Y-95782499D01*
X132909449Y-95628168D01*
X132694901Y-95513490D01*
X132462102Y-95442871D01*
X132220001Y-95419026D01*
X131977899Y-95442871D01*
X131745100Y-95513490D01*
X131530552Y-95628168D01*
X131342499Y-95782499D01*
X131327825Y-95800379D01*
X131223475Y-95696923D01*
X131020534Y-95562580D01*
X130795283Y-95470410D01*
X130757610Y-95466539D01*
X130567001Y-95591270D01*
X130567001Y-96933001D01*
X130587001Y-96933001D01*
X130587001Y-97187001D01*
X130567001Y-97187001D01*
X130567001Y-98528732D01*
X130757610Y-98653463D01*
X130795283Y-98649592D01*
X131020534Y-98557422D01*
X131223475Y-98423079D01*
X131327826Y-98319622D01*
X131342500Y-98337503D01*
X131500875Y-98467478D01*
X131514455Y-98512247D01*
X131585027Y-98644277D01*
X131597932Y-98660001D01*
X131680000Y-98760002D01*
X131709003Y-98783804D01*
X132436201Y-99511002D01*
X132459999Y-99540001D01*
X132575724Y-99634974D01*
X132707753Y-99705546D01*
X132851014Y-99749003D01*
X132962667Y-99760000D01*
X132962676Y-99760000D01*
X132999999Y-99763676D01*
X133008365Y-99762852D01*
X132974188Y-99875518D01*
X132961928Y-100000000D01*
X132965000Y-100714250D01*
X133123750Y-100873000D01*
X135373000Y-100873000D01*
X135373000Y-100853000D01*
X135627000Y-100853000D01*
X135627000Y-100873000D01*
X135647000Y-100873000D01*
X135647000Y-101127000D01*
X135627000Y-101127000D01*
X135627000Y-102476250D01*
X135785750Y-102635000D01*
X137400000Y-102638072D01*
X137524482Y-102625812D01*
X137644180Y-102589502D01*
X137754494Y-102530537D01*
X137842884Y-102457998D01*
X137894463Y-102554494D01*
X137973815Y-102651185D01*
X138070506Y-102730537D01*
X138088210Y-102740000D01*
X132459155Y-102740000D01*
X132423002Y-102620820D01*
X132364037Y-102510506D01*
X132329774Y-102468756D01*
X132351185Y-102451185D01*
X132430537Y-102354494D01*
X132489502Y-102244180D01*
X132525812Y-102124482D01*
X132538072Y-102000000D01*
X132961928Y-102000000D01*
X132974188Y-102124482D01*
X133010498Y-102244180D01*
X133069463Y-102354494D01*
X133148815Y-102451185D01*
X133245506Y-102530537D01*
X133355820Y-102589502D01*
X133475518Y-102625812D01*
X133600000Y-102638072D01*
X135214250Y-102635000D01*
X135373000Y-102476250D01*
X135373000Y-101127000D01*
X133123750Y-101127000D01*
X132965000Y-101285750D01*
X132961928Y-102000000D01*
X132538072Y-102000000D01*
X132538072Y-100000000D01*
X132525812Y-99875518D01*
X132489502Y-99755820D01*
X132430537Y-99645506D01*
X132351185Y-99548815D01*
X132254494Y-99469463D01*
X132144180Y-99410498D01*
X132024482Y-99374188D01*
X131900000Y-99361928D01*
X130436730Y-99361928D01*
X129468738Y-98393937D01*
X129537503Y-98337503D01*
X129552177Y-98319623D01*
X129656527Y-98423079D01*
X129859468Y-98557422D01*
X130084719Y-98649592D01*
X130122392Y-98653463D01*
X130313001Y-98528732D01*
X130313001Y-97187001D01*
X130293001Y-97187001D01*
X130293001Y-96933001D01*
X130313001Y-96933001D01*
X130313001Y-95591270D01*
X130122392Y-95466539D01*
X130084719Y-95470410D01*
X129859468Y-95562580D01*
X129656527Y-95696923D01*
X129552177Y-95800379D01*
X129537503Y-95782499D01*
X129349449Y-95628168D01*
X129134901Y-95513490D01*
X128902102Y-95442871D01*
X128660001Y-95419026D01*
X128417899Y-95442871D01*
X128185100Y-95513490D01*
X127970552Y-95628168D01*
X127782499Y-95782499D01*
X127660000Y-95931765D01*
X127660000Y-92160000D01*
X171840001Y-92160000D01*
X171840000Y-113840000D01*
%TA.AperFunction,Conductor*%
D19*
G36*
X171840000Y-113840000D02*
G01*
X127660000Y-113840000D01*
X127660000Y-112468236D01*
X127782500Y-112617503D01*
X127970553Y-112771834D01*
X128185101Y-112886512D01*
X128417900Y-112957131D01*
X128660001Y-112980976D01*
X128902103Y-112957131D01*
X129134902Y-112886512D01*
X129349450Y-112771834D01*
X129537503Y-112617503D01*
X129691834Y-112429450D01*
X129806512Y-112214902D01*
X129877131Y-111982102D01*
X129895001Y-111800665D01*
X129895001Y-111467001D01*
X129925001Y-111467001D01*
X129925001Y-111867001D01*
X129973508Y-112105497D01*
X130067611Y-112329947D01*
X130203694Y-112531726D01*
X130376527Y-112703079D01*
X130579468Y-112837422D01*
X130804719Y-112929592D01*
X130842392Y-112933463D01*
X131033001Y-112808732D01*
X131033001Y-111467001D01*
X131287001Y-111467001D01*
X131287001Y-112808732D01*
X131477610Y-112933463D01*
X131515283Y-112929592D01*
X131740534Y-112837422D01*
X131943475Y-112703079D01*
X132116308Y-112531726D01*
X132252391Y-112329947D01*
X132346494Y-112105497D01*
X132395001Y-111867001D01*
X132395001Y-111467001D01*
X131287001Y-111467001D01*
X131033001Y-111467001D01*
X129925001Y-111467001D01*
X129895001Y-111467001D01*
X129895001Y-110879336D01*
X129888468Y-110813001D01*
X129925001Y-110813001D01*
X129925001Y-111213001D01*
X131033001Y-111213001D01*
X131033001Y-109871270D01*
X131287001Y-109871270D01*
X131287001Y-111213001D01*
X132395001Y-111213001D01*
X132395001Y-110813001D01*
X132346494Y-110574505D01*
X132252391Y-110350055D01*
X132116308Y-110148276D01*
X131943475Y-109976923D01*
X131740534Y-109842580D01*
X131515283Y-109750410D01*
X131477610Y-109746539D01*
X131287001Y-109871270D01*
X131033001Y-109871270D01*
X130842392Y-109746539D01*
X130804719Y-109750410D01*
X130579468Y-109842580D01*
X130376527Y-109976923D01*
X130203694Y-110148276D01*
X130067611Y-110350055D01*
X129973508Y-110574505D01*
X129925001Y-110813001D01*
X129888468Y-110813001D01*
X129877131Y-110697899D01*
X129806512Y-110465100D01*
X129691834Y-110250552D01*
X129537503Y-110062499D01*
X129523662Y-110051140D01*
X130761867Y-108812935D01*
X130914902Y-108766512D01*
X131129450Y-108651834D01*
X131317503Y-108497503D01*
X131330002Y-108482274D01*
X131342500Y-108497503D01*
X131530553Y-108651834D01*
X131638645Y-108709610D01*
X131656202Y-108731003D01*
X131680001Y-108760002D01*
X131708999Y-108783800D01*
X132895203Y-109970005D01*
X132782499Y-110062499D01*
X132628168Y-110250553D01*
X132513490Y-110465101D01*
X132442871Y-110697900D01*
X132425001Y-110879337D01*
X132425001Y-111800666D01*
X132442871Y-111982103D01*
X132513490Y-112214902D01*
X132628169Y-112429450D01*
X132782500Y-112617503D01*
X132970553Y-112771834D01*
X133185101Y-112886512D01*
X133417900Y-112957131D01*
X133660001Y-112980976D01*
X133902103Y-112957131D01*
X134134902Y-112886512D01*
X134349450Y-112771834D01*
X134537503Y-112617503D01*
X134691834Y-112429450D01*
X134806512Y-112214902D01*
X134877131Y-111982102D01*
X134895001Y-111800665D01*
X134895001Y-110879336D01*
X134877131Y-110697899D01*
X134806512Y-110465100D01*
X134691834Y-110250552D01*
X134537503Y-110062499D01*
X134420001Y-109966068D01*
X134420001Y-109697334D01*
X134423678Y-109660001D01*
X134409004Y-109511015D01*
X134365547Y-109367754D01*
X134294975Y-109235725D01*
X134223800Y-109148998D01*
X134200002Y-109120000D01*
X134171005Y-109096203D01*
X133928761Y-108853959D01*
X134000001Y-108860976D01*
X134242103Y-108837131D01*
X134474902Y-108766512D01*
X134689450Y-108651834D01*
X134877503Y-108497503D01*
X134890002Y-108482274D01*
X134902500Y-108497503D01*
X135090553Y-108651834D01*
X135305101Y-108766512D01*
X135537900Y-108837131D01*
X135780001Y-108860976D01*
X136022103Y-108837131D01*
X136254902Y-108766512D01*
X136469450Y-108651834D01*
X136657503Y-108497503D01*
X136670002Y-108482274D01*
X136682500Y-108497503D01*
X136870553Y-108651834D01*
X137085101Y-108766512D01*
X137317900Y-108837131D01*
X137560001Y-108860976D01*
X137802103Y-108837131D01*
X138034902Y-108766512D01*
X138249450Y-108651834D01*
X138437503Y-108497503D01*
X138450002Y-108482274D01*
X138462500Y-108497503D01*
X138650553Y-108651834D01*
X138865101Y-108766512D01*
X139097900Y-108837131D01*
X139340001Y-108860976D01*
X139582103Y-108837131D01*
X139814902Y-108766512D01*
X140029450Y-108651834D01*
X140217503Y-108497503D01*
X140230002Y-108482274D01*
X140242500Y-108497503D01*
X140430553Y-108651834D01*
X140645101Y-108766512D01*
X140877900Y-108837131D01*
X141120001Y-108860976D01*
X141362103Y-108837131D01*
X141594902Y-108766512D01*
X141809450Y-108651834D01*
X141997503Y-108497503D01*
X142010002Y-108482274D01*
X142022500Y-108497503D01*
X142210553Y-108651834D01*
X142425101Y-108766512D01*
X142657900Y-108837131D01*
X142900001Y-108860976D01*
X143142103Y-108837131D01*
X143374902Y-108766512D01*
X143589450Y-108651834D01*
X143777503Y-108497503D01*
X143790002Y-108482274D01*
X143802500Y-108497503D01*
X143990553Y-108651834D01*
X144205101Y-108766512D01*
X144437900Y-108837131D01*
X144680001Y-108860976D01*
X144922103Y-108837131D01*
X145154902Y-108766512D01*
X145369450Y-108651834D01*
X145557503Y-108497503D01*
X145570002Y-108482274D01*
X145582500Y-108497503D01*
X145770553Y-108651834D01*
X145985101Y-108766512D01*
X146217900Y-108837131D01*
X146460001Y-108860976D01*
X146702103Y-108837131D01*
X146934902Y-108766512D01*
X147149450Y-108651834D01*
X147337503Y-108497503D01*
X147350002Y-108482274D01*
X147362500Y-108497503D01*
X147550553Y-108651834D01*
X147765101Y-108766512D01*
X147997900Y-108837131D01*
X148240001Y-108860976D01*
X148482103Y-108837131D01*
X148714902Y-108766512D01*
X148929450Y-108651834D01*
X149117503Y-108497503D01*
X149130002Y-108482274D01*
X149142500Y-108497503D01*
X149330553Y-108651834D01*
X149545101Y-108766512D01*
X149777900Y-108837131D01*
X150020001Y-108860976D01*
X150262103Y-108837131D01*
X150494902Y-108766512D01*
X150709450Y-108651834D01*
X150897503Y-108497503D01*
X150910002Y-108482274D01*
X150922500Y-108497503D01*
X151110553Y-108651834D01*
X151325101Y-108766512D01*
X151557900Y-108837131D01*
X151800001Y-108860976D01*
X152042103Y-108837131D01*
X152274902Y-108766512D01*
X152489450Y-108651834D01*
X152677503Y-108497503D01*
X152690002Y-108482274D01*
X152702500Y-108497503D01*
X152890553Y-108651834D01*
X153105101Y-108766512D01*
X153337900Y-108837131D01*
X153580001Y-108860976D01*
X153822103Y-108837131D01*
X154054902Y-108766512D01*
X154269450Y-108651834D01*
X154457503Y-108497503D01*
X154470002Y-108482274D01*
X154482500Y-108497503D01*
X154670553Y-108651834D01*
X154885101Y-108766512D01*
X155117900Y-108837131D01*
X155360001Y-108860976D01*
X155602103Y-108837131D01*
X155834902Y-108766512D01*
X156049450Y-108651834D01*
X156237503Y-108497503D01*
X156391834Y-108309450D01*
X156506512Y-108094902D01*
X156577131Y-107862102D01*
X156589429Y-107737233D01*
X156863199Y-108011003D01*
X156886997Y-108040001D01*
X157002722Y-108134974D01*
X157134751Y-108205546D01*
X157278012Y-108249003D01*
X157389665Y-108260000D01*
X157389674Y-108260000D01*
X157426997Y-108263676D01*
X157464320Y-108260000D01*
X161936852Y-108260000D01*
X161962463Y-108321831D01*
X162152337Y-108605998D01*
X162394002Y-108847663D01*
X162678169Y-109037537D01*
X162993919Y-109168325D01*
X163329117Y-109235000D01*
X163670883Y-109235000D01*
X164006081Y-109168325D01*
X164321831Y-109037537D01*
X164422443Y-108970310D01*
X164488815Y-109051185D01*
X164585506Y-109130537D01*
X164695820Y-109189502D01*
X164815518Y-109225812D01*
X164940000Y-109238072D01*
X165754250Y-109235000D01*
X165913000Y-109076250D01*
X165913000Y-107627000D01*
X166167000Y-107627000D01*
X166167000Y-109076250D01*
X166325750Y-109235000D01*
X167140000Y-109238072D01*
X167264482Y-109225812D01*
X167384180Y-109189502D01*
X167494494Y-109130537D01*
X167591185Y-109051185D01*
X167670537Y-108954494D01*
X167729502Y-108844180D01*
X167765812Y-108724482D01*
X167778072Y-108600000D01*
X167775000Y-107785750D01*
X167616250Y-107627000D01*
X166167000Y-107627000D01*
X165913000Y-107627000D01*
X165893000Y-107627000D01*
X165893000Y-107373000D01*
X165913000Y-107373000D01*
X165913000Y-107353000D01*
X166167000Y-107353000D01*
X166167000Y-107373000D01*
X167616250Y-107373000D01*
X167775000Y-107214250D01*
X167778072Y-106400000D01*
X167765812Y-106275518D01*
X167729502Y-106155820D01*
X167670537Y-106045506D01*
X167591185Y-105948815D01*
X167511267Y-105883228D01*
X167521338Y-105879274D01*
X167672216Y-105572616D01*
X167760369Y-105242415D01*
X167782409Y-104901361D01*
X167737489Y-104562561D01*
X167627336Y-104239034D01*
X167521338Y-104040726D01*
X167246712Y-103932893D01*
X166219605Y-104960000D01*
X166233748Y-104974143D01*
X166054143Y-105153748D01*
X166040000Y-105139605D01*
X166025858Y-105153748D01*
X165846253Y-104974143D01*
X165860395Y-104960000D01*
X165035469Y-104135074D01*
X164847663Y-103854002D01*
X164683661Y-103690000D01*
X164746949Y-103626712D01*
X165012893Y-103626712D01*
X165037743Y-103690000D01*
X165012893Y-103753288D01*
X165094725Y-103835120D01*
X165120726Y-103901338D01*
X165199894Y-103940289D01*
X166040000Y-104780395D01*
X166872877Y-103947518D01*
X166959274Y-103901338D01*
X166985275Y-103835120D01*
X167067107Y-103753288D01*
X167042257Y-103690000D01*
X167067107Y-103626712D01*
X166985275Y-103544880D01*
X166959274Y-103478662D01*
X166880106Y-103439711D01*
X166040000Y-102599605D01*
X165207123Y-103432482D01*
X165120726Y-103478662D01*
X165094725Y-103544880D01*
X165012893Y-103626712D01*
X164746949Y-103626712D01*
X164847663Y-103525998D01*
X165035469Y-103244926D01*
X165860395Y-102420000D01*
X166219605Y-102420000D01*
X167246712Y-103447107D01*
X167521338Y-103339274D01*
X167672216Y-103032616D01*
X167760369Y-102702415D01*
X167782409Y-102361361D01*
X167737489Y-102022561D01*
X167627336Y-101699034D01*
X167521338Y-101500726D01*
X167246712Y-101392893D01*
X166219605Y-102420000D01*
X165860395Y-102420000D01*
X165035469Y-101595074D01*
X164847663Y-101314002D01*
X164683661Y-101150000D01*
X164770000Y-101063661D01*
X164934002Y-101227663D01*
X165215074Y-101415469D01*
X166040000Y-102240395D01*
X166864926Y-101415469D01*
X167145998Y-101227663D01*
X167387663Y-100985998D01*
X167577537Y-100701831D01*
X167708325Y-100386081D01*
X167775000Y-100050883D01*
X167775000Y-99709117D01*
X167708325Y-99373919D01*
X167577537Y-99058169D01*
X167387663Y-98774002D01*
X167223661Y-98610000D01*
X167387663Y-98445998D01*
X167577537Y-98161831D01*
X167708325Y-97846081D01*
X167775000Y-97510883D01*
X167775000Y-97169117D01*
X167708325Y-96833919D01*
X167577537Y-96518169D01*
X167387663Y-96234002D01*
X167145998Y-95992337D01*
X166861831Y-95802463D01*
X166800000Y-95776852D01*
X166800000Y-95077322D01*
X166803676Y-95039999D01*
X166800000Y-95002676D01*
X166800000Y-95002667D01*
X166789003Y-94891014D01*
X166745546Y-94747753D01*
X166722986Y-94705546D01*
X166674974Y-94615723D01*
X166603799Y-94528997D01*
X166580001Y-94499999D01*
X166551004Y-94476202D01*
X165563804Y-93489002D01*
X165540001Y-93459999D01*
X165424276Y-93365026D01*
X165292247Y-93294454D01*
X165148986Y-93250997D01*
X165037333Y-93240000D01*
X165037322Y-93240000D01*
X165000000Y-93236324D01*
X164962678Y-93240000D01*
X160165486Y-93240000D01*
X160128163Y-93236324D01*
X160090840Y-93240000D01*
X160090830Y-93240000D01*
X159979177Y-93250997D01*
X159835916Y-93294454D01*
X159703887Y-93365026D01*
X159588162Y-93459999D01*
X159564364Y-93488997D01*
X156582361Y-96471000D01*
X156577131Y-96417899D01*
X156506512Y-96185100D01*
X156391834Y-95970552D01*
X156237503Y-95782499D01*
X156049449Y-95628168D01*
X155834901Y-95513490D01*
X155602102Y-95442871D01*
X155360001Y-95419026D01*
X155117899Y-95442871D01*
X154885100Y-95513490D01*
X154670552Y-95628168D01*
X154482499Y-95782499D01*
X154470001Y-95797728D01*
X154457503Y-95782499D01*
X154269449Y-95628168D01*
X154054901Y-95513490D01*
X153822102Y-95442871D01*
X153580001Y-95419026D01*
X153337899Y-95442871D01*
X153105100Y-95513490D01*
X152890552Y-95628168D01*
X152702499Y-95782499D01*
X152690001Y-95797728D01*
X152677503Y-95782499D01*
X152489449Y-95628168D01*
X152274901Y-95513490D01*
X152042102Y-95442871D01*
X151800001Y-95419026D01*
X151557899Y-95442871D01*
X151325100Y-95513490D01*
X151110552Y-95628168D01*
X150922499Y-95782499D01*
X150910001Y-95797728D01*
X150897503Y-95782499D01*
X150709449Y-95628168D01*
X150494901Y-95513490D01*
X150262102Y-95442871D01*
X150020001Y-95419026D01*
X149777899Y-95442871D01*
X149545100Y-95513490D01*
X149330552Y-95628168D01*
X149142499Y-95782499D01*
X149130001Y-95797728D01*
X149117503Y-95782499D01*
X148929449Y-95628168D01*
X148714901Y-95513490D01*
X148482102Y-95442871D01*
X148240001Y-95419026D01*
X147997899Y-95442871D01*
X147765100Y-95513490D01*
X147550552Y-95628168D01*
X147362499Y-95782499D01*
X147350001Y-95797728D01*
X147337503Y-95782499D01*
X147149449Y-95628168D01*
X146934901Y-95513490D01*
X146702102Y-95442871D01*
X146460001Y-95419026D01*
X146217899Y-95442871D01*
X145985100Y-95513490D01*
X145770552Y-95628168D01*
X145582499Y-95782499D01*
X145570001Y-95797728D01*
X145557503Y-95782499D01*
X145369449Y-95628168D01*
X145154901Y-95513490D01*
X144922102Y-95442871D01*
X144680001Y-95419026D01*
X144437899Y-95442871D01*
X144205100Y-95513490D01*
X143990552Y-95628168D01*
X143802499Y-95782499D01*
X143790001Y-95797728D01*
X143777503Y-95782499D01*
X143589449Y-95628168D01*
X143374901Y-95513490D01*
X143142102Y-95442871D01*
X142900001Y-95419026D01*
X142657899Y-95442871D01*
X142425100Y-95513490D01*
X142210552Y-95628168D01*
X142022499Y-95782499D01*
X142010001Y-95797728D01*
X141997503Y-95782499D01*
X141809449Y-95628168D01*
X141594901Y-95513490D01*
X141362102Y-95442871D01*
X141120001Y-95419026D01*
X140877899Y-95442871D01*
X140645100Y-95513490D01*
X140430552Y-95628168D01*
X140242499Y-95782499D01*
X140230001Y-95797728D01*
X140217503Y-95782499D01*
X140029449Y-95628168D01*
X139814901Y-95513490D01*
X139582102Y-95442871D01*
X139340001Y-95419026D01*
X139097899Y-95442871D01*
X138865100Y-95513490D01*
X138650552Y-95628168D01*
X138462499Y-95782499D01*
X138450001Y-95797728D01*
X138437503Y-95782499D01*
X138249449Y-95628168D01*
X138034901Y-95513490D01*
X137802102Y-95442871D01*
X137560001Y-95419026D01*
X137317899Y-95442871D01*
X137085100Y-95513490D01*
X136870552Y-95628168D01*
X136682499Y-95782499D01*
X136670001Y-95797728D01*
X136657503Y-95782499D01*
X136469449Y-95628168D01*
X136254901Y-95513490D01*
X136022102Y-95442871D01*
X135780001Y-95419026D01*
X135537899Y-95442871D01*
X135305100Y-95513490D01*
X135090552Y-95628168D01*
X134902499Y-95782499D01*
X134890001Y-95797728D01*
X134877503Y-95782499D01*
X134689449Y-95628168D01*
X134474901Y-95513490D01*
X134242102Y-95442871D01*
X134000001Y-95419026D01*
X133757899Y-95442871D01*
X133525100Y-95513490D01*
X133310552Y-95628168D01*
X133122499Y-95782499D01*
X133110001Y-95797728D01*
X133097503Y-95782499D01*
X132909449Y-95628168D01*
X132694901Y-95513490D01*
X132462102Y-95442871D01*
X132220001Y-95419026D01*
X131977899Y-95442871D01*
X131745100Y-95513490D01*
X131530552Y-95628168D01*
X131342499Y-95782499D01*
X131327825Y-95800379D01*
X131223475Y-95696923D01*
X131020534Y-95562580D01*
X130795283Y-95470410D01*
X130757610Y-95466539D01*
X130567001Y-95591270D01*
X130567001Y-96933001D01*
X130587001Y-96933001D01*
X130587001Y-97187001D01*
X130567001Y-97187001D01*
X130567001Y-98528732D01*
X130757610Y-98653463D01*
X130795283Y-98649592D01*
X131020534Y-98557422D01*
X131223475Y-98423079D01*
X131327826Y-98319622D01*
X131342500Y-98337503D01*
X131500875Y-98467478D01*
X131514455Y-98512247D01*
X131585027Y-98644277D01*
X131597932Y-98660001D01*
X131680000Y-98760002D01*
X131709003Y-98783804D01*
X132436201Y-99511002D01*
X132459999Y-99540001D01*
X132575724Y-99634974D01*
X132707753Y-99705546D01*
X132851014Y-99749003D01*
X132962667Y-99760000D01*
X132962676Y-99760000D01*
X132999999Y-99763676D01*
X133008365Y-99762852D01*
X132974188Y-99875518D01*
X132961928Y-100000000D01*
X132965000Y-100714250D01*
X133123750Y-100873000D01*
X135373000Y-100873000D01*
X135373000Y-100853000D01*
X135627000Y-100853000D01*
X135627000Y-100873000D01*
X135647000Y-100873000D01*
X135647000Y-101127000D01*
X135627000Y-101127000D01*
X135627000Y-102476250D01*
X135785750Y-102635000D01*
X137400000Y-102638072D01*
X137524482Y-102625812D01*
X137644180Y-102589502D01*
X137754494Y-102530537D01*
X137842884Y-102457998D01*
X137894463Y-102554494D01*
X137973815Y-102651185D01*
X138070506Y-102730537D01*
X138088210Y-102740000D01*
X132459155Y-102740000D01*
X132423002Y-102620820D01*
X132364037Y-102510506D01*
X132329774Y-102468756D01*
X132351185Y-102451185D01*
X132430537Y-102354494D01*
X132489502Y-102244180D01*
X132525812Y-102124482D01*
X132538072Y-102000000D01*
X132961928Y-102000000D01*
X132974188Y-102124482D01*
X133010498Y-102244180D01*
X133069463Y-102354494D01*
X133148815Y-102451185D01*
X133245506Y-102530537D01*
X133355820Y-102589502D01*
X133475518Y-102625812D01*
X133600000Y-102638072D01*
X135214250Y-102635000D01*
X135373000Y-102476250D01*
X135373000Y-101127000D01*
X133123750Y-101127000D01*
X132965000Y-101285750D01*
X132961928Y-102000000D01*
X132538072Y-102000000D01*
X132538072Y-100000000D01*
X132525812Y-99875518D01*
X132489502Y-99755820D01*
X132430537Y-99645506D01*
X132351185Y-99548815D01*
X132254494Y-99469463D01*
X132144180Y-99410498D01*
X132024482Y-99374188D01*
X131900000Y-99361928D01*
X130436730Y-99361928D01*
X129468738Y-98393937D01*
X129537503Y-98337503D01*
X129552177Y-98319623D01*
X129656527Y-98423079D01*
X129859468Y-98557422D01*
X130084719Y-98649592D01*
X130122392Y-98653463D01*
X130313001Y-98528732D01*
X130313001Y-97187001D01*
X130293001Y-97187001D01*
X130293001Y-96933001D01*
X130313001Y-96933001D01*
X130313001Y-95591270D01*
X130122392Y-95466539D01*
X130084719Y-95470410D01*
X129859468Y-95562580D01*
X129656527Y-95696923D01*
X129552177Y-95800379D01*
X129537503Y-95782499D01*
X129349449Y-95628168D01*
X129134901Y-95513490D01*
X128902102Y-95442871D01*
X128660001Y-95419026D01*
X128417899Y-95442871D01*
X128185100Y-95513490D01*
X127970552Y-95628168D01*
X127782499Y-95782499D01*
X127660000Y-95931765D01*
X127660000Y-92160000D01*
X171840001Y-92160000D01*
X171840000Y-113840000D01*
G37*
%TD.AperFunction*%
D18*
X161962463Y-105781831D02*
X162152337Y-106065998D01*
X162316339Y-106230000D01*
X162152337Y-106394002D01*
X161962463Y-106678169D01*
X161936852Y-106740000D01*
X157741800Y-106740000D01*
X156761800Y-105760000D01*
X161953420Y-105760000D01*
X161962463Y-105781831D01*
%TA.AperFunction,Conductor*%
D19*
G36*
X161962463Y-105781831D02*
G01*
X162152337Y-106065998D01*
X162316339Y-106230000D01*
X162152337Y-106394002D01*
X161962463Y-106678169D01*
X161936852Y-106740000D01*
X157741800Y-106740000D01*
X156761800Y-105760000D01*
X161953420Y-105760000D01*
X161962463Y-105781831D01*
G37*
%TD.AperFunction*%
D18*
X165280000Y-95354802D02*
X165280000Y-95776852D01*
X165218169Y-95802463D01*
X164934002Y-95992337D01*
X164692337Y-96234002D01*
X164504531Y-96515074D01*
X163679605Y-97340000D01*
X164504531Y-98164926D01*
X164692337Y-98445998D01*
X164856339Y-98610000D01*
X164770000Y-98696339D01*
X164605998Y-98532337D01*
X164324926Y-98344531D01*
X163500000Y-97519605D01*
X162675074Y-98344531D01*
X162394002Y-98532337D01*
X162152337Y-98774002D01*
X161962463Y-99058169D01*
X161831675Y-99373919D01*
X161765000Y-99709117D01*
X161765000Y-100050883D01*
X161831675Y-100386081D01*
X161962463Y-100701831D01*
X162152337Y-100985998D01*
X162316339Y-101150000D01*
X162152337Y-101314002D01*
X161962463Y-101598169D01*
X161831675Y-101913919D01*
X161765000Y-102249117D01*
X161765000Y-102590883D01*
X161831675Y-102926081D01*
X161962463Y-103241831D01*
X162152337Y-103525998D01*
X162316339Y-103690000D01*
X162152337Y-103854002D01*
X161962463Y-104138169D01*
X161920283Y-104240000D01*
X156703711Y-104240000D01*
X156659774Y-104196063D01*
X156490256Y-104082795D01*
X156301898Y-104004774D01*
X156101939Y-103965000D01*
X155898061Y-103965000D01*
X155698102Y-104004774D01*
X155535000Y-104072334D01*
X155535000Y-103898061D01*
X155495226Y-103698102D01*
X155417205Y-103509744D01*
X155303937Y-103340226D01*
X155159774Y-103196063D01*
X154990256Y-103082795D01*
X154801898Y-103004774D01*
X154601939Y-102965000D01*
X154398061Y-102965000D01*
X154198102Y-103004774D01*
X154009744Y-103082795D01*
X153840226Y-103196063D01*
X153696063Y-103340226D01*
X153582795Y-103509744D01*
X153504774Y-103698102D01*
X153465000Y-103898061D01*
X153465000Y-104101939D01*
X153504774Y-104301898D01*
X153582795Y-104490256D01*
X153696063Y-104659774D01*
X153750202Y-104713913D01*
X153750997Y-104721988D01*
X153794454Y-104865249D01*
X153811993Y-104898061D01*
X153865026Y-104997278D01*
X153936201Y-105084004D01*
X153960000Y-105113003D01*
X153988998Y-105136801D01*
X154653972Y-105801775D01*
X154482499Y-105942499D01*
X154470001Y-105957728D01*
X154457503Y-105942499D01*
X154269449Y-105788168D01*
X154054901Y-105673490D01*
X153822102Y-105602871D01*
X153580001Y-105579026D01*
X153337899Y-105602871D01*
X153105100Y-105673490D01*
X152890552Y-105788168D01*
X152702499Y-105942499D01*
X152690001Y-105957728D01*
X152677503Y-105942499D01*
X152489449Y-105788168D01*
X152274901Y-105673490D01*
X152042102Y-105602871D01*
X151800001Y-105579026D01*
X151557899Y-105602871D01*
X151325100Y-105673490D01*
X151110552Y-105788168D01*
X150922499Y-105942499D01*
X150910001Y-105957728D01*
X150897503Y-105942499D01*
X150709449Y-105788168D01*
X150494901Y-105673490D01*
X150262102Y-105602871D01*
X150020001Y-105579026D01*
X149777899Y-105602871D01*
X149545100Y-105673490D01*
X149330552Y-105788168D01*
X149142499Y-105942499D01*
X149130001Y-105957728D01*
X149117503Y-105942499D01*
X148929449Y-105788168D01*
X148714901Y-105673490D01*
X148482102Y-105602871D01*
X148240001Y-105579026D01*
X147997899Y-105602871D01*
X147765100Y-105673490D01*
X147550552Y-105788168D01*
X147362499Y-105942499D01*
X147350001Y-105957728D01*
X147337503Y-105942499D01*
X147149449Y-105788168D01*
X146934901Y-105673490D01*
X146702102Y-105602871D01*
X146460001Y-105579026D01*
X146217899Y-105602871D01*
X145985100Y-105673490D01*
X145770552Y-105788168D01*
X145582499Y-105942499D01*
X145570001Y-105957728D01*
X145557503Y-105942499D01*
X145369449Y-105788168D01*
X145154901Y-105673490D01*
X144922102Y-105602871D01*
X144680001Y-105579026D01*
X144437899Y-105602871D01*
X144205100Y-105673490D01*
X143990552Y-105788168D01*
X143802499Y-105942499D01*
X143790001Y-105957728D01*
X143777503Y-105942499D01*
X143589449Y-105788168D01*
X143374901Y-105673490D01*
X143142102Y-105602871D01*
X142900001Y-105579026D01*
X142657899Y-105602871D01*
X142425100Y-105673490D01*
X142210552Y-105788168D01*
X142022499Y-105942499D01*
X142010001Y-105957728D01*
X141997503Y-105942499D01*
X141809449Y-105788168D01*
X141594901Y-105673490D01*
X141362102Y-105602871D01*
X141120001Y-105579026D01*
X140877899Y-105602871D01*
X140645100Y-105673490D01*
X140430552Y-105788168D01*
X140242499Y-105942499D01*
X140230001Y-105957728D01*
X140217503Y-105942499D01*
X140029449Y-105788168D01*
X139814901Y-105673490D01*
X139582102Y-105602871D01*
X139340001Y-105579026D01*
X139097899Y-105602871D01*
X138865100Y-105673490D01*
X138650552Y-105788168D01*
X138462499Y-105942499D01*
X138450001Y-105957728D01*
X138437503Y-105942499D01*
X138249449Y-105788168D01*
X138034901Y-105673490D01*
X137802102Y-105602871D01*
X137560001Y-105579026D01*
X137317899Y-105602871D01*
X137085100Y-105673490D01*
X136870552Y-105788168D01*
X136682499Y-105942499D01*
X136670001Y-105957728D01*
X136657503Y-105942499D01*
X136469449Y-105788168D01*
X136254901Y-105673490D01*
X136022102Y-105602871D01*
X135780001Y-105579026D01*
X135537899Y-105602871D01*
X135305100Y-105673490D01*
X135090552Y-105788168D01*
X134902499Y-105942499D01*
X134890001Y-105957728D01*
X134877503Y-105942499D01*
X134689449Y-105788168D01*
X134474901Y-105673490D01*
X134242102Y-105602871D01*
X134000001Y-105579026D01*
X133757899Y-105602871D01*
X133525100Y-105673490D01*
X133310552Y-105788168D01*
X133122499Y-105942499D01*
X133110001Y-105957728D01*
X133097503Y-105942499D01*
X132909449Y-105788168D01*
X132694901Y-105673490D01*
X132462102Y-105602871D01*
X132220001Y-105579026D01*
X131977899Y-105602871D01*
X131745100Y-105673490D01*
X131530552Y-105788168D01*
X131342499Y-105942499D01*
X131330001Y-105957728D01*
X131317503Y-105942499D01*
X131200001Y-105846068D01*
X131200001Y-104773072D01*
X131833500Y-104773072D01*
X131957982Y-104760812D01*
X132077680Y-104724502D01*
X132187994Y-104665537D01*
X132284685Y-104586185D01*
X132364037Y-104489494D01*
X132423002Y-104379180D01*
X132459155Y-104260000D01*
X150590841Y-104260000D01*
X150628163Y-104263676D01*
X150665485Y-104260000D01*
X150665496Y-104260000D01*
X150777149Y-104249003D01*
X150920410Y-104205546D01*
X151052439Y-104134974D01*
X151168164Y-104040001D01*
X151191967Y-104010997D01*
X157804325Y-97398639D01*
X161757591Y-97398639D01*
X161802511Y-97737439D01*
X161912664Y-98060966D01*
X162018662Y-98259274D01*
X162293288Y-98367107D01*
X163320395Y-97340000D01*
X162293288Y-96312893D01*
X162018662Y-96420726D01*
X161867784Y-96727384D01*
X161779631Y-97057585D01*
X161757591Y-97398639D01*
X157804325Y-97398639D01*
X159069676Y-96133288D01*
X162472893Y-96133288D01*
X163500000Y-97160395D01*
X164527107Y-96133288D01*
X164419274Y-95858662D01*
X164112616Y-95707784D01*
X163782415Y-95619631D01*
X163441361Y-95597591D01*
X163102561Y-95642511D01*
X162779034Y-95752664D01*
X162580726Y-95858662D01*
X162472893Y-96133288D01*
X159069676Y-96133288D01*
X160442965Y-94760000D01*
X164685199Y-94760000D01*
X165280000Y-95354802D01*
%TA.AperFunction,Conductor*%
D19*
G36*
X165280000Y-95354802D02*
G01*
X165280000Y-95776852D01*
X165218169Y-95802463D01*
X164934002Y-95992337D01*
X164692337Y-96234002D01*
X164504531Y-96515074D01*
X163679605Y-97340000D01*
X164504531Y-98164926D01*
X164692337Y-98445998D01*
X164856339Y-98610000D01*
X164770000Y-98696339D01*
X164605998Y-98532337D01*
X164324926Y-98344531D01*
X163500000Y-97519605D01*
X162675074Y-98344531D01*
X162394002Y-98532337D01*
X162152337Y-98774002D01*
X161962463Y-99058169D01*
X161831675Y-99373919D01*
X161765000Y-99709117D01*
X161765000Y-100050883D01*
X161831675Y-100386081D01*
X161962463Y-100701831D01*
X162152337Y-100985998D01*
X162316339Y-101150000D01*
X162152337Y-101314002D01*
X161962463Y-101598169D01*
X161831675Y-101913919D01*
X161765000Y-102249117D01*
X161765000Y-102590883D01*
X161831675Y-102926081D01*
X161962463Y-103241831D01*
X162152337Y-103525998D01*
X162316339Y-103690000D01*
X162152337Y-103854002D01*
X161962463Y-104138169D01*
X161920283Y-104240000D01*
X156703711Y-104240000D01*
X156659774Y-104196063D01*
X156490256Y-104082795D01*
X156301898Y-104004774D01*
X156101939Y-103965000D01*
X155898061Y-103965000D01*
X155698102Y-104004774D01*
X155535000Y-104072334D01*
X155535000Y-103898061D01*
X155495226Y-103698102D01*
X155417205Y-103509744D01*
X155303937Y-103340226D01*
X155159774Y-103196063D01*
X154990256Y-103082795D01*
X154801898Y-103004774D01*
X154601939Y-102965000D01*
X154398061Y-102965000D01*
X154198102Y-103004774D01*
X154009744Y-103082795D01*
X153840226Y-103196063D01*
X153696063Y-103340226D01*
X153582795Y-103509744D01*
X153504774Y-103698102D01*
X153465000Y-103898061D01*
X153465000Y-104101939D01*
X153504774Y-104301898D01*
X153582795Y-104490256D01*
X153696063Y-104659774D01*
X153750202Y-104713913D01*
X153750997Y-104721988D01*
X153794454Y-104865249D01*
X153811993Y-104898061D01*
X153865026Y-104997278D01*
X153936201Y-105084004D01*
X153960000Y-105113003D01*
X153988998Y-105136801D01*
X154653972Y-105801775D01*
X154482499Y-105942499D01*
X154470001Y-105957728D01*
X154457503Y-105942499D01*
X154269449Y-105788168D01*
X154054901Y-105673490D01*
X153822102Y-105602871D01*
X153580001Y-105579026D01*
X153337899Y-105602871D01*
X153105100Y-105673490D01*
X152890552Y-105788168D01*
X152702499Y-105942499D01*
X152690001Y-105957728D01*
X152677503Y-105942499D01*
X152489449Y-105788168D01*
X152274901Y-105673490D01*
X152042102Y-105602871D01*
X151800001Y-105579026D01*
X151557899Y-105602871D01*
X151325100Y-105673490D01*
X151110552Y-105788168D01*
X150922499Y-105942499D01*
X150910001Y-105957728D01*
X150897503Y-105942499D01*
X150709449Y-105788168D01*
X150494901Y-105673490D01*
X150262102Y-105602871D01*
X150020001Y-105579026D01*
X149777899Y-105602871D01*
X149545100Y-105673490D01*
X149330552Y-105788168D01*
X149142499Y-105942499D01*
X149130001Y-105957728D01*
X149117503Y-105942499D01*
X148929449Y-105788168D01*
X148714901Y-105673490D01*
X148482102Y-105602871D01*
X148240001Y-105579026D01*
X147997899Y-105602871D01*
X147765100Y-105673490D01*
X147550552Y-105788168D01*
X147362499Y-105942499D01*
X147350001Y-105957728D01*
X147337503Y-105942499D01*
X147149449Y-105788168D01*
X146934901Y-105673490D01*
X146702102Y-105602871D01*
X146460001Y-105579026D01*
X146217899Y-105602871D01*
X145985100Y-105673490D01*
X145770552Y-105788168D01*
X145582499Y-105942499D01*
X145570001Y-105957728D01*
X145557503Y-105942499D01*
X145369449Y-105788168D01*
X145154901Y-105673490D01*
X144922102Y-105602871D01*
X144680001Y-105579026D01*
X144437899Y-105602871D01*
X144205100Y-105673490D01*
X143990552Y-105788168D01*
X143802499Y-105942499D01*
X143790001Y-105957728D01*
X143777503Y-105942499D01*
X143589449Y-105788168D01*
X143374901Y-105673490D01*
X143142102Y-105602871D01*
X142900001Y-105579026D01*
X142657899Y-105602871D01*
X142425100Y-105673490D01*
X142210552Y-105788168D01*
X142022499Y-105942499D01*
X142010001Y-105957728D01*
X141997503Y-105942499D01*
X141809449Y-105788168D01*
X141594901Y-105673490D01*
X141362102Y-105602871D01*
X141120001Y-105579026D01*
X140877899Y-105602871D01*
X140645100Y-105673490D01*
X140430552Y-105788168D01*
X140242499Y-105942499D01*
X140230001Y-105957728D01*
X140217503Y-105942499D01*
X140029449Y-105788168D01*
X139814901Y-105673490D01*
X139582102Y-105602871D01*
X139340001Y-105579026D01*
X139097899Y-105602871D01*
X138865100Y-105673490D01*
X138650552Y-105788168D01*
X138462499Y-105942499D01*
X138450001Y-105957728D01*
X138437503Y-105942499D01*
X138249449Y-105788168D01*
X138034901Y-105673490D01*
X137802102Y-105602871D01*
X137560001Y-105579026D01*
X137317899Y-105602871D01*
X137085100Y-105673490D01*
X136870552Y-105788168D01*
X136682499Y-105942499D01*
X136670001Y-105957728D01*
X136657503Y-105942499D01*
X136469449Y-105788168D01*
X136254901Y-105673490D01*
X136022102Y-105602871D01*
X135780001Y-105579026D01*
X135537899Y-105602871D01*
X135305100Y-105673490D01*
X135090552Y-105788168D01*
X134902499Y-105942499D01*
X134890001Y-105957728D01*
X134877503Y-105942499D01*
X134689449Y-105788168D01*
X134474901Y-105673490D01*
X134242102Y-105602871D01*
X134000001Y-105579026D01*
X133757899Y-105602871D01*
X133525100Y-105673490D01*
X133310552Y-105788168D01*
X133122499Y-105942499D01*
X133110001Y-105957728D01*
X133097503Y-105942499D01*
X132909449Y-105788168D01*
X132694901Y-105673490D01*
X132462102Y-105602871D01*
X132220001Y-105579026D01*
X131977899Y-105602871D01*
X131745100Y-105673490D01*
X131530552Y-105788168D01*
X131342499Y-105942499D01*
X131330001Y-105957728D01*
X131317503Y-105942499D01*
X131200001Y-105846068D01*
X131200001Y-104773072D01*
X131833500Y-104773072D01*
X131957982Y-104760812D01*
X132077680Y-104724502D01*
X132187994Y-104665537D01*
X132284685Y-104586185D01*
X132364037Y-104489494D01*
X132423002Y-104379180D01*
X132459155Y-104260000D01*
X150590841Y-104260000D01*
X150628163Y-104263676D01*
X150665485Y-104260000D01*
X150665496Y-104260000D01*
X150777149Y-104249003D01*
X150920410Y-104205546D01*
X151052439Y-104134974D01*
X151168164Y-104040001D01*
X151191967Y-104010997D01*
X157804325Y-97398639D01*
X161757591Y-97398639D01*
X161802511Y-97737439D01*
X161912664Y-98060966D01*
X162018662Y-98259274D01*
X162293288Y-98367107D01*
X163320395Y-97340000D01*
X162293288Y-96312893D01*
X162018662Y-96420726D01*
X161867784Y-96727384D01*
X161779631Y-97057585D01*
X161757591Y-97398639D01*
X157804325Y-97398639D01*
X159069676Y-96133288D01*
X162472893Y-96133288D01*
X163500000Y-97160395D01*
X164527107Y-96133288D01*
X164419274Y-95858662D01*
X164112616Y-95707784D01*
X163782415Y-95619631D01*
X163441361Y-95597591D01*
X163102561Y-95642511D01*
X162779034Y-95752664D01*
X162580726Y-95858662D01*
X162472893Y-96133288D01*
X159069676Y-96133288D01*
X160442965Y-94760000D01*
X164685199Y-94760000D01*
X165280000Y-95354802D01*
G37*
%TD.AperFunction*%
D18*
X154482500Y-98337503D02*
X154610671Y-98442690D01*
X150313362Y-102740000D01*
X141771860Y-102740000D01*
X141868387Y-102688405D01*
X142002962Y-102577962D01*
X142113405Y-102443387D01*
X142195472Y-102289851D01*
X142204527Y-102260000D01*
X142296289Y-102260000D01*
X142340226Y-102303937D01*
X142509744Y-102417205D01*
X142698102Y-102495226D01*
X142898061Y-102535000D01*
X143101939Y-102535000D01*
X143301898Y-102495226D01*
X143490256Y-102417205D01*
X143659774Y-102303937D01*
X143803937Y-102159774D01*
X143917205Y-101990256D01*
X143995226Y-101801898D01*
X144035000Y-101601939D01*
X144035000Y-101398061D01*
X143995226Y-101198102D01*
X143917205Y-101009744D01*
X143803937Y-100840226D01*
X143659774Y-100696063D01*
X143490256Y-100582795D01*
X143301898Y-100504774D01*
X143101939Y-100465000D01*
X142898061Y-100465000D01*
X142698102Y-100504774D01*
X142509744Y-100582795D01*
X142340226Y-100696063D01*
X142296289Y-100740000D01*
X142204527Y-100740000D01*
X142195472Y-100710149D01*
X142113405Y-100556613D01*
X142002962Y-100422038D01*
X141868387Y-100311595D01*
X141714851Y-100229528D01*
X141548255Y-100178992D01*
X141375001Y-100161928D01*
X140786730Y-100161928D01*
X139324223Y-98699422D01*
X139340001Y-98700976D01*
X139582103Y-98677131D01*
X139814902Y-98606512D01*
X140029450Y-98491834D01*
X140217503Y-98337503D01*
X140230002Y-98322274D01*
X140242500Y-98337503D01*
X140430553Y-98491834D01*
X140645101Y-98606512D01*
X140877900Y-98677131D01*
X141120001Y-98700976D01*
X141362103Y-98677131D01*
X141594902Y-98606512D01*
X141809450Y-98491834D01*
X141997503Y-98337503D01*
X142010002Y-98322274D01*
X142022500Y-98337503D01*
X142210553Y-98491834D01*
X142425101Y-98606512D01*
X142657900Y-98677131D01*
X142900001Y-98700976D01*
X143142103Y-98677131D01*
X143374902Y-98606512D01*
X143589450Y-98491834D01*
X143777503Y-98337503D01*
X143790002Y-98322274D01*
X143802500Y-98337503D01*
X143990553Y-98491834D01*
X144205101Y-98606512D01*
X144437900Y-98677131D01*
X144680001Y-98700976D01*
X144922103Y-98677131D01*
X145154902Y-98606512D01*
X145369450Y-98491834D01*
X145557503Y-98337503D01*
X145570002Y-98322274D01*
X145582500Y-98337503D01*
X145770553Y-98491834D01*
X145985101Y-98606512D01*
X146217900Y-98677131D01*
X146460001Y-98700976D01*
X146702103Y-98677131D01*
X146934902Y-98606512D01*
X147149450Y-98491834D01*
X147337503Y-98337503D01*
X147350002Y-98322274D01*
X147362500Y-98337503D01*
X147550553Y-98491834D01*
X147765101Y-98606512D01*
X147997900Y-98677131D01*
X148240001Y-98700976D01*
X148482103Y-98677131D01*
X148714902Y-98606512D01*
X148929450Y-98491834D01*
X149117503Y-98337503D01*
X149130002Y-98322274D01*
X149142500Y-98337503D01*
X149330553Y-98491834D01*
X149545101Y-98606512D01*
X149777900Y-98677131D01*
X150020001Y-98700976D01*
X150262103Y-98677131D01*
X150494902Y-98606512D01*
X150709450Y-98491834D01*
X150897503Y-98337503D01*
X150910002Y-98322274D01*
X150922500Y-98337503D01*
X151110553Y-98491834D01*
X151325101Y-98606512D01*
X151557900Y-98677131D01*
X151800001Y-98700976D01*
X152042103Y-98677131D01*
X152274902Y-98606512D01*
X152489450Y-98491834D01*
X152677503Y-98337503D01*
X152690002Y-98322274D01*
X152702500Y-98337503D01*
X152890553Y-98491834D01*
X153105101Y-98606512D01*
X153337900Y-98677131D01*
X153580001Y-98700976D01*
X153822103Y-98677131D01*
X154054902Y-98606512D01*
X154269450Y-98491834D01*
X154457503Y-98337503D01*
X154470002Y-98322274D01*
X154482500Y-98337503D01*
%TA.AperFunction,Conductor*%
D19*
G36*
X154482500Y-98337503D02*
G01*
X154610671Y-98442690D01*
X150313362Y-102740000D01*
X141771860Y-102740000D01*
X141868387Y-102688405D01*
X142002962Y-102577962D01*
X142113405Y-102443387D01*
X142195472Y-102289851D01*
X142204527Y-102260000D01*
X142296289Y-102260000D01*
X142340226Y-102303937D01*
X142509744Y-102417205D01*
X142698102Y-102495226D01*
X142898061Y-102535000D01*
X143101939Y-102535000D01*
X143301898Y-102495226D01*
X143490256Y-102417205D01*
X143659774Y-102303937D01*
X143803937Y-102159774D01*
X143917205Y-101990256D01*
X143995226Y-101801898D01*
X144035000Y-101601939D01*
X144035000Y-101398061D01*
X143995226Y-101198102D01*
X143917205Y-101009744D01*
X143803937Y-100840226D01*
X143659774Y-100696063D01*
X143490256Y-100582795D01*
X143301898Y-100504774D01*
X143101939Y-100465000D01*
X142898061Y-100465000D01*
X142698102Y-100504774D01*
X142509744Y-100582795D01*
X142340226Y-100696063D01*
X142296289Y-100740000D01*
X142204527Y-100740000D01*
X142195472Y-100710149D01*
X142113405Y-100556613D01*
X142002962Y-100422038D01*
X141868387Y-100311595D01*
X141714851Y-100229528D01*
X141548255Y-100178992D01*
X141375001Y-100161928D01*
X140786730Y-100161928D01*
X139324223Y-98699422D01*
X139340001Y-98700976D01*
X139582103Y-98677131D01*
X139814902Y-98606512D01*
X140029450Y-98491834D01*
X140217503Y-98337503D01*
X140230002Y-98322274D01*
X140242500Y-98337503D01*
X140430553Y-98491834D01*
X140645101Y-98606512D01*
X140877900Y-98677131D01*
X141120001Y-98700976D01*
X141362103Y-98677131D01*
X141594902Y-98606512D01*
X141809450Y-98491834D01*
X141997503Y-98337503D01*
X142010002Y-98322274D01*
X142022500Y-98337503D01*
X142210553Y-98491834D01*
X142425101Y-98606512D01*
X142657900Y-98677131D01*
X142900001Y-98700976D01*
X143142103Y-98677131D01*
X143374902Y-98606512D01*
X143589450Y-98491834D01*
X143777503Y-98337503D01*
X143790002Y-98322274D01*
X143802500Y-98337503D01*
X143990553Y-98491834D01*
X144205101Y-98606512D01*
X144437900Y-98677131D01*
X144680001Y-98700976D01*
X144922103Y-98677131D01*
X145154902Y-98606512D01*
X145369450Y-98491834D01*
X145557503Y-98337503D01*
X145570002Y-98322274D01*
X145582500Y-98337503D01*
X145770553Y-98491834D01*
X145985101Y-98606512D01*
X146217900Y-98677131D01*
X146460001Y-98700976D01*
X146702103Y-98677131D01*
X146934902Y-98606512D01*
X147149450Y-98491834D01*
X147337503Y-98337503D01*
X147350002Y-98322274D01*
X147362500Y-98337503D01*
X147550553Y-98491834D01*
X147765101Y-98606512D01*
X147997900Y-98677131D01*
X148240001Y-98700976D01*
X148482103Y-98677131D01*
X148714902Y-98606512D01*
X148929450Y-98491834D01*
X149117503Y-98337503D01*
X149130002Y-98322274D01*
X149142500Y-98337503D01*
X149330553Y-98491834D01*
X149545101Y-98606512D01*
X149777900Y-98677131D01*
X150020001Y-98700976D01*
X150262103Y-98677131D01*
X150494902Y-98606512D01*
X150709450Y-98491834D01*
X150897503Y-98337503D01*
X150910002Y-98322274D01*
X150922500Y-98337503D01*
X151110553Y-98491834D01*
X151325101Y-98606512D01*
X151557900Y-98677131D01*
X151800001Y-98700976D01*
X152042103Y-98677131D01*
X152274902Y-98606512D01*
X152489450Y-98491834D01*
X152677503Y-98337503D01*
X152690002Y-98322274D01*
X152702500Y-98337503D01*
X152890553Y-98491834D01*
X153105101Y-98606512D01*
X153337900Y-98677131D01*
X153580001Y-98700976D01*
X153822103Y-98677131D01*
X154054902Y-98606512D01*
X154269450Y-98491834D01*
X154457503Y-98337503D01*
X154470002Y-98322274D01*
X154482500Y-98337503D01*
G37*
%TD.AperFunction*%
D18*
X139127000Y-101373000D02*
X139147000Y-101373000D01*
X139147000Y-101627000D01*
X139127000Y-101627000D01*
X139127000Y-101647000D01*
X138873000Y-101647000D01*
X138873000Y-101627000D01*
X138853000Y-101627000D01*
X138853000Y-101373000D01*
X138873000Y-101373000D01*
X138873000Y-101353000D01*
X139127000Y-101353000D01*
X139127000Y-101373000D01*
%TA.AperFunction,Conductor*%
D19*
G36*
X139127000Y-101373000D02*
G01*
X139147000Y-101373000D01*
X139147000Y-101627000D01*
X139127000Y-101627000D01*
X139127000Y-101647000D01*
X138873000Y-101647000D01*
X138873000Y-101627000D01*
X138853000Y-101627000D01*
X138853000Y-101373000D01*
X138873000Y-101373000D01*
X138873000Y-101353000D01*
X139127000Y-101353000D01*
X139127000Y-101373000D01*
G37*
%TD.AperFunction*%
%TD*%
M02*
