%TF.GenerationSoftware,KiCad,Pcbnew,(5.1.7)-1*%
%TF.CreationDate,2020-11-17T20:53:12-06:00*%
%TF.ProjectId,ST72F264 Programming Interface,53543732-4632-4363-9420-50726f677261,rev?*%
%TF.SameCoordinates,Original*%
%TF.FileFunction,Legend,Top*%
%TF.FilePolarity,Positive*%
%FSLAX46Y46*%
G04 Gerber Fmt 4.6, Leading zero omitted, Abs format (unit mm)*
G04 Created by KiCad (PCBNEW (5.1.7)-1) date 2020-11-17 20:53:12*
%MOMM*%
%LPD*%
G01*
G04 APERTURE LIST*
%ADD10C,0.100000*%
%ADD11C,0.120000*%
%ADD12C,0.150000*%
G04 APERTURE END LIST*
D10*
%TO.C,J1*%
X160100000Y-92000000D02*
X160100000Y-92500000D01*
X160100000Y-92000000D02*
X160600000Y-92000000D01*
X160100000Y-112600000D02*
X160100000Y-112100000D01*
X160100000Y-112600000D02*
X160600000Y-112600000D01*
X169400000Y-112600000D02*
X168900000Y-112600000D01*
X169400000Y-112600000D02*
X169400000Y-112100000D01*
X169400000Y-92000000D02*
X169400000Y-92500000D01*
X169400000Y-92000000D02*
X168900000Y-92000000D01*
D11*
%TO.C,Y1*%
X129910001Y-109840001D02*
X129910001Y-112840001D01*
X127560001Y-112840001D02*
X127560001Y-109840001D01*
X134760001Y-112840001D02*
X127560001Y-112840001D01*
X134760001Y-109840001D02*
X134760001Y-112840001D01*
X127560001Y-109840001D02*
X134760001Y-109840001D01*
%TO.C,U1*%
X127560001Y-104333334D02*
X127560001Y-108720000D01*
X127920001Y-104333334D02*
X127560001Y-104333334D01*
X127920001Y-99946668D02*
X127920001Y-104333334D01*
X127560001Y-99946668D02*
X127920001Y-99946668D01*
X127560001Y-95560001D02*
X127560001Y-99946668D01*
X156460001Y-95560002D02*
X127560001Y-95560001D01*
X156460001Y-108720001D02*
X156460001Y-95560002D01*
X127560001Y-108720000D02*
X156460001Y-108720001D01*
%TO.C,J1*%
D12*
X158552380Y-103233333D02*
X159266666Y-103233333D01*
X159409523Y-103280952D01*
X159504761Y-103376190D01*
X159552380Y-103519047D01*
X159552380Y-103614285D01*
X159552380Y-102233333D02*
X159552380Y-102804761D01*
X159552380Y-102519047D02*
X158552380Y-102519047D01*
X158695238Y-102614285D01*
X158790476Y-102709523D01*
X158838095Y-102804761D01*
%TO.C,Y1*%
X130683810Y-113816191D02*
X130683810Y-114292381D01*
X130350477Y-113292381D02*
X130683810Y-113816191D01*
X131017143Y-113292381D01*
X131874286Y-114292381D02*
X131302858Y-114292381D01*
X131588572Y-114292381D02*
X131588572Y-113292381D01*
X131493334Y-113435239D01*
X131398096Y-113530477D01*
X131302858Y-113578096D01*
%TO.C,U1*%
X126012381Y-102901905D02*
X126821905Y-102901905D01*
X126917143Y-102854286D01*
X126964762Y-102806667D01*
X127012381Y-102711429D01*
X127012381Y-102520953D01*
X126964762Y-102425715D01*
X126917143Y-102378096D01*
X126821905Y-102330477D01*
X126012381Y-102330477D01*
X127012381Y-101330477D02*
X127012381Y-101901905D01*
X127012381Y-101616191D02*
X126012381Y-101616191D01*
X126155239Y-101711429D01*
X126250477Y-101806667D01*
X126298096Y-101901905D01*
%TD*%
M02*
